<?xml version="1.0" ?><svg data-name="Layer 1 copy" id="Layer_1_copy" viewBox="0 0 512 512" xmlns="http://www.w3.org/2000/svg"><title/><rect height="88" style="fill:#fd7c26" width="448" x="32" y="392"/><rect height="40" style="fill:#af4732" width="416" x="48" y="352"/><rect height="40" style="fill:#e8c28b" width="208" x="152" y="416"/><circle cx="420" cy="436" r="20" style="fill:#631c18"/><polygon points="104 504 64 504 56 480 112 480 104 504" style="fill:#af4732"/><polygon points="448 504 408 504 400 480 456 480 448 504" style="fill:#af4732"/><path d="M352,320V102.323L336,88l16-13.419V24A16.144,16.144,0,0,0,335.715,8H176.285A16.144,16.144,0,0,0,160,24V74.581L176,88l-16,14.323V320c0,17.673,14.582,32,32.569,32H319.431C337.418,352,352,337.673,352,320Z" style="fill:#efd5ab"/><polygon points="352 74.581 352 64 160 64 160 74.581 176 88 336 88 352 74.581" style="fill:#631c18"/><path d="M352,24A16.144,16.144,0,0,0,335.715,8H176.285A16.144,16.144,0,0,0,160,24V64H352Z" style="fill:#af4732"/><path d="M336,88H176l-16,14.323V156c13.712,0,13.712,8,27.424,8s13.714-8,27.427-8,13.714,8,27.428,8,13.714-8,27.427-8,13.714,8,27.429,8,13.716-8,27.433-8,13.716,8,27.432,8V102.323Z" style="fill:#efd5ab"/><path d="M297.135,164c-13.714,0-13.714-8-27.429-8s-13.714,8-27.427,8-13.714-8-27.428-8-13.714,8-27.427,8-13.712-8-27.424-8V320c0,17.673,14.582,32,32.569,32H319.431C337.418,352,352,337.673,352,320V164c-13.716,0-13.716-8-27.432-8S310.851,164,297.135,164Z" style="fill:#e8c28b"/><rect height="40" style="fill:#fcfcfc;opacity:0.30000000000000004" width="144" x="48" y="352"/><rect height="88" style="fill:#fcfcfc;opacity:0.30000000000000004" width="160" x="32" y="392"/><circle cx="92" cy="436" r="20" style="fill:#631c18"/><path d="M176.285,8A16.144,16.144,0,0,0,160,24V74.581L176,88l-16,14.323V320c0,17.673,14.582,32,32.569,32H232V8Z" style="fill:#fcfcfc;opacity:0.30000000000000004"/><path d="M40,352v32H32a8,8,0,0,0-8,8v88a8,8,0,0,0,8,8H50.234l6.177,18.53A8,8,0,0,0,64,512h40a8,8,0,0,0,7.59-5.47L117.766,488H394.234l6.177,18.53A8,8,0,0,0,408,512h40a8,8,0,0,0,7.59-5.47L461.766,488H480a8,8,0,0,0,8-8V392a8,8,0,0,0-8-8h-8V352a8,8,0,0,0-8-8H351.864A39.427,39.427,0,0,0,360,320V98.747L348.215,88.2,360,78.312V24A24.171,24.171,0,0,0,335.716,0H176.284A24.171,24.171,0,0,0,152,24V78.312L163.785,88.2,152,98.747V320a39.427,39.427,0,0,0,8.136,24H48A8,8,0,0,0,40,352ZM98.234,496H69.766L67.1,488h33.8Zm344,0H413.766l-2.666-8h33.8ZM472,472H40V400H472ZM333.089,80H178.911l-9.539-8H342.628ZM179.058,96H332.942L344,105.9v48.153c-.542-.295-1.094-.616-1.686-.961a33.484,33.484,0,0,0-35.493,0c-3,1.753-4.99,2.911-9.687,2.911s-6.679-1.158-9.683-2.91A31.351,31.351,0,0,0,269.706,148c-9.02,0-13.856,2.822-17.744,5.09-3,1.752-4.988,2.91-9.683,2.91s-6.679-1.158-9.683-2.91a33.478,33.478,0,0,0-35.49,0c-3,1.752-4.988,2.91-9.683,2.91s-6.677-1.158-9.681-2.91A33.756,33.756,0,0,0,168,148.882V105.9Zm-2.774-80H335.716A8.155,8.155,0,0,1,344,24V56H168V24A8.155,8.155,0,0,1,176.284,16ZM168,320V165.951c.54.294,1.09.614,1.681.959a33.473,33.473,0,0,0,35.488,0c3-1.752,4.988-2.91,9.683-2.91s6.679,1.158,9.683,2.91a33.478,33.478,0,0,0,35.49,0c3-1.752,4.988-2.91,9.682-2.91s6.68,1.158,9.684,2.91a33.481,33.481,0,0,0,35.492,0c3-1.752,4.99-2.91,9.686-2.91s6.682,1.158,9.687,2.911A33.772,33.772,0,0,0,344,171.118V320c0,13.233-11.021,24-24.569,24H192.569C179.021,344,168,333.233,168,320ZM56,360H456v24H56Z"/><path d="M360,408H152a8,8,0,0,0-8,8v40a8,8,0,0,0,8,8H360a8,8,0,0,0,8-8V416A8,8,0,0,0,360,408Zm-8,40H160V424H352Z"/><path d="M92,408a28,28,0,1,0,28,28A28.031,28.031,0,0,0,92,408Zm0,40a12,12,0,1,1,12-12A12.013,12.013,0,0,1,92,448Z"/><path d="M420,408a28,28,0,1,0,28,28A28.031,28.031,0,0,0,420,408Zm0,40a12,12,0,1,1,12-12A12.013,12.013,0,0,1,420,448Z"/><rect height="16" width="16" x="192" y="184"/><rect height="16" width="16" x="192" y="240"/><rect height="16" width="16" x="224" y="208"/><rect height="16" width="16" x="256" y="232"/><rect height="16" width="16" x="272" y="192"/><rect height="16" width="16" x="304" y="216"/><rect height="16" width="16" x="320" y="184"/><rect height="16" width="16" x="312" y="248"/></svg>